<svg xmlns="http://www.w3.org/2000/svg" xmlns:xlink="http://www.w3.org/1999/xlink" width="24" height="24" viewBox="0 0 24 24"><defs><style>.a{fill:#a0a3ae;}.b{clip-path:url(#a);}</style><clipPath id="a"><rect class="a" width="24" height="24" transform="translate(418 78)"/></clipPath></defs><g class="b" transform="translate(-418 -78)"><g transform="translate(418 78)"><path class="a" d="M23.185,2.365H.815A.815.815,0,0,0,0,3.18V20.82a.815.815,0,0,0,.815.815H23.185A.815.815,0,0,0,24,20.82V3.18A.815.815,0,0,0,23.185,2.365ZM22.369,20H1.631V4H22.369Z"/><path class="a" d="M14.079,6.116a2.854,2.854,0,1,0,2.854,2.854A2.857,2.857,0,0,0,14.079,6.116Zm0,4.077A1.223,1.223,0,1,1,15.3,8.969,1.225,1.225,0,0,1,14.079,10.193Z"/><path class="a" d="M8.047,10.782a.815.815,0,0,0-1.007-.066L.354,15.31l.923,1.344,6.157-4.23,10.041,9.029,1.091-1.212Z"/><rect class="a" width="11.015" height="1.631" transform="matrix(0.861, -0.508, 0.508, 0.861, 13.312, 16.284)"/></g></g></svg>