<svg xmlns="http://www.w3.org/2000/svg" width="100" height="76" viewBox="0 0 148.805 76"><defs><style>.a{fill:#ffd059;}.b{fill:#101834;}.c{fill:#111934;}</style></defs><g transform="translate(-8.674 -3.489)"><g transform="translate(104.574 3.489)"><g transform="translate(1.329 1.329)"><path class="a" d="M1092.986,193.943a5.327,5.327,0,0,0-5.326-5.312h-39.613a5.32,5.32,0,0,0-5.314,5.312v48.618a5.316,5.316,0,0,0,5.314,5.307h9.765a1.34,1.34,0,0,1,1.155.664l7.2,12.47a1.968,1.968,0,0,0,3.39,0l7.183-12.465a1.328,1.328,0,0,1,1.152-.664h9.77a5.324,5.324,0,0,0,5.326-5.307Z" transform="translate(-1042.733 -188.631)"/></g><path class="b" d="M1086.765,187.736a5.327,5.327,0,0,1,5.326,5.312v48.618a5.324,5.324,0,0,1-5.326,5.307h-9.77a1.329,1.329,0,0,0-1.152.664L1068.66,260.1a1.969,1.969,0,0,1-3.391,0l-7.2-12.47a1.342,1.342,0,0,0-1.156-.664h-9.765a5.316,5.316,0,0,1-5.314-5.307V193.048a5.32,5.32,0,0,1,5.314-5.312h39.613m0-1.329h-39.613a6.653,6.653,0,0,0-6.643,6.641v48.618a6.652,6.652,0,0,0,6.643,6.641h9.765l7.2,12.461a3.3,3.3,0,0,0,5.7,0l7.18-12.461h9.77a6.657,6.657,0,0,0,6.649-6.641V193.048a6.657,6.657,0,0,0-6.649-6.641Z" transform="translate(-1040.509 -186.407)"/><g transform="translate(5.204 13.555)"><path class="b" d="M1099.617,248.716a5.963,5.963,0,0,0-4.011-4.683l-4.663-1.548v-.7h-1.088v.948l-3.8,7.125-3.8-7.125v-.948h-1.087v.7l-4.663,1.548a5.963,5.963,0,0,0-4.011,4.683l-1.19,7.175h29.5Zm-27.034,6.09.622-3.708h0l.37-2.207a4.856,4.856,0,0,1,3.268-3.823l1.072-.363v4.543a1.383,1.383,0,0,1-.789,1.269l-.258.137-.52,4.152Zm4.862,0,.436-3.462a2.4,2.4,0,0,0,.355-.3,2.491,2.491,0,0,0,.763-1.793v-.41h0v-4.5l2.45-.808,4.064,7.615v.948H1079v1.092h6.515v1.619Zm9.151,0v-1.619h6.516v-1.092H1086.6v-.948l2.86-5.359,1.2-2.256,2.451.808v4.5h0v.41a2.488,2.488,0,0,0,.82,1.842,2.422,2.422,0,0,0,.3.255l.435,3.462Zm9.167,0-.52-4.152-.259-.137a1.383,1.383,0,0,1-.789-1.269V244.7l1.072.363a4.855,4.855,0,0,1,3.268,3.823l.37,2.207h0l.623,3.708Z" transform="translate(-1058.108 -222.251)"/><path class="b" d="M1080.184,221.023a2.708,2.708,0,0,0,2.415,2.685,5.98,5.98,0,0,0,1.511,2.553l2.111,2.116a2.722,2.722,0,0,0,1.918.792h2.548a2.746,2.746,0,0,0,1.921-.792l2.11-2.116a6.024,6.024,0,0,0,1.509-2.553,2.709,2.709,0,0,0,2.414-2.685,2.674,2.674,0,0,0-.56-1.626h1.1v-3.253h-1.706a8.185,8.185,0,0,0-5.894-6.747v-.3h-4.341v.3a8.168,8.168,0,0,0-5.892,6.747h-1.709V219.4h1.1A2.686,2.686,0,0,0,1080.184,221.023Zm1.087,0a1.631,1.631,0,0,1,1.084-1.528v2.544a4.809,4.809,0,0,0,.027.531A1.642,1.642,0,0,1,1081.271,221.023Zm14.112,1.016a4.874,4.874,0,0,1-1.433,3.455l-2.112,2.107a1.624,1.624,0,0,1-1.152.479h-2.548a1.619,1.619,0,0,1-1.149-.479l-2.118-2.107a4.9,4.9,0,0,1-1.431-3.455V219.4h11.942Zm1.06.531c.017-.186.024-.357.024-.531V219.5a1.627,1.627,0,0,1-.024,3.075Zm-5.944-12.393v3.8h-2.174v-3.8Zm-3.257.349v3.451h-2.174v1.084h8.687v-1.084h-2.171v-3.451a7.081,7.081,0,0,1,4.8,5.617h-13.944A7.054,7.054,0,0,1,1087.242,210.526Zm-6.517,7.789v-1.085H1098.1v1.085Z" transform="translate(-1061.464 -209.093)"/><path class="b" d="M1060.284,242.376l-1.565,1.548v-.757h-9.5v9.5h9.5v-6.091l2.895-2.87Zm-2.786,9.071h-7.059v-7.06h7.059v.744l-2.87,2.839-2.236-2.2-1.329,1.329,3.55,3.516.07-.071.017.016,2.8-2.774Z" transform="translate(-1049.219 -222.489)"/><path class="b" d="M1058.719,222.439v-.757h-9.5v9.5h9.5V225.09l2.895-2.87-1.329-1.331Zm-1.22,7.522h-7.059V222.9h7.059v.744l-2.87,2.839-2.236-2.2-1.329,1.33,3.55,3.516.07-.071.017.016,2.8-2.774Z" transform="translate(-1049.219 -213.841)"/></g></g><g transform="translate(8.674 8.981)"><path class="c" d="M893.852,209.708a1.95,1.95,0,0,0,1.43-.6,2.017,2.017,0,0,0,0-2.827,1.97,1.97,0,0,0-1.43-.562,1.923,1.923,0,0,0-1.414.578,1.879,1.879,0,0,0-.595,1.4,2,2,0,0,0,2.009,2.009Z" transform="translate(-884.773 -199.674)"/><path class="c" d="M922.294,233.148a1.791,1.791,0,0,0-1.35.595,1.948,1.948,0,0,0-.563,1.382,2.006,2.006,0,0,0,.563,1.43,1.816,1.816,0,0,0,1.35.578,1.872,1.872,0,0,0,1.4-.578,2,2,0,0,0,.546-1.43,1.963,1.963,0,0,0-.546-1.4A1.872,1.872,0,0,0,922.294,233.148Z" transform="translate(-896.259 -210.712)"/><path class="c" d="M930.878,233.148a1.827,1.827,0,0,0-1.382.595,1.911,1.911,0,0,0-.562,1.382,2.006,2.006,0,0,0,.562,1.43,1.921,1.921,0,0,0,2.748,0,2.008,2.008,0,0,0,.562-1.43,1.933,1.933,0,0,0-.562-1.4A1.836,1.836,0,0,0,930.878,233.148Z" transform="translate(-899.701 -210.712)"/><path class="c" d="M992.305,212.38q-4.113,0-6.234-1.574a5.031,5.031,0,0,1-.675-7.343,4.423,4.423,0,0,1,3.295-1.253,8.825,8.825,0,0,1,3.679.755l.66-2.892a12.311,12.311,0,0,0-4.21-.691,7.4,7.4,0,0,0-7.82,7.6,6.626,6.626,0,0,0,2.581,5.4H961.758V195.6h-3.616v19.784h35.88v-3Z" transform="translate(-911.457 -195.599)"/><path class="c" d="M889.3,251.77h-3.246l-6,16.845-.046.13h2.94l1.3-3.7h6.672l1.24,3.637.022.066H895.4l-6.082-16.911Zm-1.743,3.319c.145.517.357,1.2.634,2.031l1.969,5.566h-5.175l1.97-5.59C887.184,256.431,887.387,255.756,887.557,255.089Z" transform="translate(-880.01 -218.207)"/><path class="c" d="M925.847,256.815c-.586,1.188-1.034,2.185-1.334,2.967-.335-.846-.714-1.739-1.125-2.661l-2.489-5.294-.027-.056h-3.181l5.3,10.9v6.073h2.9v-6.072l5.345-10.761.069-.142h-3.084Z" transform="translate(-895.177 -218.207)"/><path class="c" d="M957.891,268.746h9.047v-2.5h-6.144v-5.038h5.853V258.8h-5.853v-4.576h6.144V251.77h-9.047Z" transform="translate(-911.356 -218.207)"/><path class="c" d="M1006.046,251.77v4.347c0,3.487.053,6.349.156,8.516-.431-.923-.948-1.91-1.541-2.944l-5.84-9.871-.028-.048h-3.735v16.975h2.8v-4.723c0-3.548-.047-6.31-.142-8.225.4.886.88,1.829,1.43,2.811l5.965,10.137h3.735V251.77Z" transform="translate(-926.315 -218.207)"/><path class="c" d="M918.826,208.492v9.077H897.38V211.5h-3.29v7.174c0,4.327-2.19,6.3-5.543,6.3-3.406,0-5.247-2.062-5.247-6.561a22.788,22.788,0,0,1,.656-5.4h-3.237a24.575,24.575,0,0,0-.708,5.738q0,4.773,2.378,7.134a8.161,8.161,0,0,0,6.01,2.137c5.335,0,8.3-2.533,8.886-7.458h24.854V208.492Z" transform="translate(-880.01 -200.788)"/></g></g></svg>