<svg xmlns="http://www.w3.org/2000/svg" width="42" height="42" viewBox="0 0 42 42"><defs><style>.a,.b{fill:#d9727f;}.a{opacity:0.2;}</style></defs><g transform="translate(-72 -14.181)"><rect class="a" width="42" height="42" rx="10" transform="translate(72 14.181)"/><g transform="translate(84 25.181)"><g transform="translate(0)"><path class="b" d="M74.943,131.6a.7.7,0,0,0-.7.7v11.77a.752.752,0,0,1-.751.751H62.752a.752.752,0,0,1-.751-.751V132.3a.7.7,0,1,0-1.4,0v11.77a2.155,2.155,0,0,0,2.152,2.152H73.49a2.155,2.155,0,0,0,2.152-2.152V132.3A.7.7,0,0,0,74.943,131.6Z" transform="translate(-58.746 -126.225)"/><path class="b" d="M33.256,3.1H29V2.291A2.3,2.3,0,0,0,26.705,0H22.449a2.293,2.293,0,0,0-2.291,2.291V3.1H15.9a.7.7,0,0,0,0,1.4H33.256a.7.7,0,1,0,0-1.4Zm-11.7-.809a.892.892,0,0,1,.89-.89h4.256a.892.892,0,0,1,.89.89V3.1H21.559Z" transform="translate(-15.2)"/><path class="b" d="M229.2,173.308V164.5a.7.7,0,0,0-1.4,0v8.809a.7.7,0,0,0,1.4,0Z" transform="translate(-219.117 -157.11)"/><path class="b" d="M153.2,173.308V164.5a.7.7,0,0,0-1.4,0v8.809a.7.7,0,0,0,1.4,0Z" transform="translate(-146.221 -157.11)"/><path class="b" d="M305,173.308V164.5a.7.7,0,1,0-1.4,0v8.809a.7.7,0,1,0,1.4,0Z" transform="translate(-291.821 -157.11)"/></g></g></g></svg>