<svg xmlns="http://www.w3.org/2000/svg" width="34" height="34" viewBox="0 0 34 34"><defs><style>.a,.b{fill:#707585;}.a{opacity:0;}</style></defs><rect class="a" width="34" height="34"/><path class="b" d="M33,32.008H31.543V1a1,1,0,0,0-1-1H3.453a1,1,0,0,0-1,1V32.008H1A1,1,0,0,0,1,34H33a1,1,0,0,0,0-1.992Zm-3.453,0H18V1.992H29.551ZM4.449,1.992H16V32.008H4.449Zm0,0"/><path class="b" d="M314,83.953h3.984a1,1,0,0,0,1-1V73a1,1,0,0,0-1-1H314a1,1,0,0,0-1,1v9.961A1,1,0,0,0,314,83.953Zm1-9.961h1.992v7.969h-1.992Zm0,0" transform="translate(-292.215 -67.219)"/><path class="b" d="M110,83.953h3.984a1,1,0,0,0,1-1V73a1,1,0,0,0-1-1H110a1,1,0,0,0-1,1v9.961A1,1,0,0,0,110,83.953Zm1-9.961h1.992v7.969h-1.992Zm0,0" transform="translate(-101.762 -67.219)"/><path class="b" d="M302,314.992h5.578a1,1,0,0,0,0-1.992H302a1,1,0,0,0,0,1.992Zm0,0" transform="translate(-281.012 -292.215)"/><path class="b" d="M103.574,313H98a1,1,0,0,0,0,1.992h5.578a1,1,0,0,0,0-1.992Zm0,0" transform="translate(-90.559 -292.215)"/></svg>