<svg xmlns="http://www.w3.org/2000/svg" width="14.734" height="13" viewBox="0 0 14.734 13"><defs><style>.a{fill:#111934;stroke:rgba(0,0,0,0);stroke-miterlimit:10;}</style></defs><path class="a" d="M22794.52,3263.8l-5.326-5.326a.678.678,0,0,1-.2-.469.69.69,0,0,1,.2-.469l5.332-5.338a.665.665,0,0,1,.943.938l-4.2,4.2-.2.218a.692.692,0,0,0,.027.944l.172.172,4.205,4.194a.671.671,0,0,1,.006.938.656.656,0,0,1-.473.195A.689.689,0,0,1,22794.52,3263.8Zm-7,0-5.326-5.326a.673.673,0,0,1-.189-.469.684.684,0,0,1,.189-.469l5.338-5.338a.663.663,0,0,1,.938.938l-4.2,4.2-.2.218a.684.684,0,0,0,.023.944l.172.172,4.205,4.194a.671.671,0,0,1,.006.938.656.656,0,0,1-.473.195A.689.689,0,0,1,22787.518,3263.8Z" transform="translate(-22781.502 -3251.5)"/></svg>