<svg xmlns="http://www.w3.org/2000/svg" width="14.734" height="13" viewBox="0 0 14.734 13"><defs><style>.a{fill:#111934;stroke:rgba(0,0,0,0);stroke-miterlimit:10;}</style></defs><path class="a" d="M12.518.2,7.191,5.527A.678.678,0,0,0,7,6a.69.69,0,0,0,.2.469L12.523,11.8a.665.665,0,0,0,.943-.938l-4.2-4.2-.2-.218A.692.692,0,0,1,9.1,5.5l.172-.172,4.205-4.194a.671.671,0,0,0,.006-.938A.656.656,0,0,0,13.006,0,.689.689,0,0,0,12.518.2Zm-7,0L.189,5.527A.673.673,0,0,0,0,6a.684.684,0,0,0,.189.469L5.527,11.8a.663.663,0,1,0,.938-.938l-4.2-4.2-.2-.218A.684.684,0,0,1,2.094,5.5l.172-.172L6.471,1.133A.671.671,0,0,0,6.477.195.656.656,0,0,0,6,0,.689.689,0,0,0,5.516.2Z" transform="translate(14.234 12.5) rotate(180)"/></svg>