<svg xmlns="http://www.w3.org/2000/svg" xmlns:xlink="http://www.w3.org/1999/xlink" width="22" height="22" viewBox="0 0 22 22"><defs><style>.a{fill:#a0a3ae;}.b{clip-path:url(#a);}</style><clipPath id="a"><rect class="a" width="22" height="22" transform="translate(199.162 14)"/></clipPath></defs><g class="b" transform="translate(-199.162 -14)"><g transform="translate(199.162 14)"><path d="M10.352,18.065h0c.021.021.043.041.067.06l.033.024.039.029.04.024.037.022.042.02.04.018.041.015.044.015.042.011.045.011.049.007.04.006a.923.923,0,0,0,.181,0l.04-.006.049-.007.045-.011.042-.011.044-.015.041-.015.04-.018.042-.02.037-.022.04-.024.039-.029.033-.024c.023-.019.045-.039.067-.06h0l6.417-6.417a.917.917,0,0,0-1.3-1.3L11.917,15.2V.917a.917.917,0,0,0-1.833,0V15.2L5.232,10.352a.917.917,0,0,0-1.3,1.3Z"/><path d="M17.417,20.167H4.583a.917.917,0,0,0,0,1.833H17.417a.917.917,0,1,0,0-1.833Z"/></g></g></svg>