<svg xmlns="http://www.w3.org/2000/svg"
 width="34" height="34" viewBox="0 0 34 34"><defs><style>.a,.b{fill:#707585;}.a{opacity:0;}</style></defs><g transform="translate(-403 -64)"><rect class="a" width="34" height="34" transform="translate(403 64)"/><path class="b" d="M33,7.469H31.866V6.331a1,1,0,0,0-1.992,0V7.469H25.465V6.331a1,1,0,1,0-1.992,0V7.469H20.13V1a1,1,0,0,0-1-1H14.866a1,1,0,0,0-1,1V7.469H10.528V6.331a1,1,0,1,0-1.992,0V7.469H4.126V6.331a1,1,0,0,0-1.992,0V7.469H1a1,1,0,0,0-1,1v4.268a1,1,0,0,0,1,1H6.985l6.885,6.885v1.792H9.532a1,1,0,0,0-1,1v6.4a1,1,0,0,0,1,1H13.87V33a1,1,0,1,0,1.992,0V13.729h2.275V33a1,1,0,1,0,1.992,0V30.8h4.339a1,1,0,0,0,1-1V23.4a1,1,0,0,0-1-1H20.13V20.614l6.885-6.885H33a1,1,0,0,0,1-1V8.465a1,1,0,0,0-1-1ZM15.862,1.992h2.275V7.469H15.862ZM10.528,28.807V24.4H13.87v4.41ZM13.87,17.8,9.8,13.729H13.87Zm9.6,6.6v4.41H20.13V24.4ZM20.13,17.8V13.729H24.2Zm11.878-6.06H1.992V9.461H32.008Zm0,0"
 transform="translate(403 64)"/></g></svg>