<svg xmlns="http://www.w3.org/2000/svg" width="20" height="20" viewBox="0 0 20 20"><defs><style>.a{fill:#d9727f;}</style></defs><path class="a" d="M178.872,177.98a.7.7,0,0,0-.992.992l1.551,1.551-1.551,1.551a.7.7,0,1,0,.988.992l1.551-1.551,1.551,1.551a.7.7,0,1,0,.988-.992l-1.551-1.551,1.551-1.551a.7.7,0,0,0-.992-.992l-1.551,1.551Z" transform="translate(-170.423 -170.519)"/><path class="a" d="M0,10A10,10,0,1,0,10,0,10.011,10.011,0,0,0,0,10Zm18.6,0A8.6,8.6,0,1,1,10,1.4,8.609,8.609,0,0,1,18.6,10Z"/></svg>