<svg xmlns="http://www.w3.org/2000/svg" width="34" height="34" viewBox="0 0 34 34"><defs><style>.a,.b{fill:#707585;}.a{opacity:0;}</style></defs><g transform="translate(-4.565)"><rect class="a" width="34" height="34" transform="translate(4.565)"/><g transform="translate(5.065)"><path class="b" d="M37.717,18.478H36.608V5.543A1.109,1.109,0,0,0,35.5,4.435H32.174V1.109A1.109,1.109,0,0,0,31.065,0H13.326a1.109,1.109,0,0,0-1.109,1.109V4.435H8.891A1.109,1.109,0,0,0,7.782,5.544V18.478H6.674a1.109,1.109,0,1,0,0,2.217H7.782v12.2A1.109,1.109,0,0,0,8.891,34H35.5a1.109,1.109,0,0,0,1.109-1.109V20.7h1.109a1.109,1.109,0,1,0,0-2.217ZM14.435,2.217H29.956V4.435H14.435Zm13.3,9.609h2.217v6.652H27.739Zm-8.87-2.217V6.652h6.652V9.609Zm6.652,2.217v6.652H23.3V11.826Zm-4.435,0v6.652H18.869V11.826ZM10,6.652h6.652V9.609H10Zm6.652,5.174v6.652H14.435V11.826Zm-6.652,0h2.217v6.652H10Zm0,13.3h2.217v2.217H10Zm11.087,6.652H18.869V29.565h2.217ZM19.06,27.348a3.325,3.325,0,0,1,6.271,0Zm6.461,4.435H23.3V29.565h2.217Zm8.87-4.435H32.174V25.13h2.217Zm0-4.435H31.065a1.109,1.109,0,0,0-1.109,1.109v4.435a1.109,1.109,0,0,0,1.109,1.109h3.326v2.217H27.739V28.456a5.543,5.543,0,1,0-11.087,0v3.326H10V29.565h3.326a1.109,1.109,0,0,0,1.109-1.109V24.022a1.109,1.109,0,0,0-1.109-1.109H10V20.7H34.391v2.217Zm0-4.435H32.174V11.826h2.217Zm0-8.87H27.739V6.652h6.652Z" transform="translate(-5.565)"/></g></g></svg>