<svg xmlns="http://www.w3.org/2000/svg" width="24" height="24" viewBox="0 0 24 24"><defs><style>.a,.b{fill:#a0a3ae;}.a{opacity:0;}</style></defs><g transform="translate(0 -3.551)"><rect class="a" width="24" height="24" transform="translate(0 3.551)"/><path class="b" d="M24,12.143s.088-4.383-2.249-6.841a5.684,5.684,0,0,0-4.293-1.75H3.053A3.087,3.087,0,0,0,0,6.664V23.452a4.066,4.066,0,0,0,4.021,4.1H19.978A4.066,4.066,0,0,0,24,23.452ZM3.053,5.191h14.4a4.1,4.1,0,0,1,3.134,1.247A5.883,5.883,0,0,1,21.836,8.6a3.572,3.572,0,0,0-1.858-.465H3.053a1.473,1.473,0,0,1,0-2.946ZM22.391,17.44H20.964a.82.82,0,0,0,0,1.64h1.427v1.692H20.558a2.439,2.439,0,0,1-2.413-2.46v-.105a2.439,2.439,0,0,1,2.413-2.46h1.833Zm0-3.332H20.558a4.066,4.066,0,0,0-4.021,4.1v.105a4.066,4.066,0,0,0,4.021,4.1h1.833v1.04a2.439,2.439,0,0,1-2.413,2.46H4.021a2.439,2.439,0,0,1-2.413-2.46V9.4a2.989,2.989,0,0,0,1.445.371H19.978a2.439,2.439,0,0,1,2.413,2.46Z" transform="translate(0 0)"/></g></svg>