<svg xmlns="http://www.w3.org/2000/svg" width="34.001" height="34" viewBox="0 0 34.001 34"><defs><style>.a,.b{fill:#707585;}.a{opacity:0;}</style></defs><g transform="translate(-403 -64)"><rect class="a" width="34" height="34" transform="translate(403 64)"/><path class="b" d="M33,0H1A1,1,0,0,0,0,1V33.008a1,1,0,0,0,1,1H33a1,1,0,0,0,1-1V1A1,1,0,0,0,33,0ZM20.283,22.867V15.714h7.153v7.153Zm2.58-16.3v7.153H15.71V6.569Zm9.145,4.573v7.153h-2.58V11.141Zm-4.572,2.58h-2.58v-2.58h2.58Zm-9.145,4.573H15.71v-2.58h2.58ZM13.718,9.149h-2.58V6.569h2.58Zm0,1.992v7.153H6.565V11.141ZM1.992,15.714h2.58v7.153H1.992Zm7.153,7.153H6.565v-2.58h2.58v2.58ZM4.573,13.722H1.992v-2.58h2.58Zm6.565,6.565h7.153v7.153H11.138Zm11.725,7.153h-2.58v-2.58h2.58Zm6.565-7.153h2.58v2.58h-2.58Zm2.58-11.137H24.855V2h7.153ZM22.863,4.577h-2.58V2h2.58ZM11.138,2h7.153V4.577H11.138ZM1.992,2H9.145V9.149H1.992ZM9.145,32.012H1.992V24.859H9.145Zm1.993-2.58h2.58v2.58h-2.58Zm4.573,0h7.153v2.58H15.71Zm16.3,2.58H24.855V24.859h7.153Z" transform="translate(403 63.996)"/></g></svg>