<svg xmlns="http://www.w3.org/2000/svg" width="34" height="34" viewBox="0 0 34 34"><defs><style>.a{fill:#9397a3;opacity:0;}.b{fill:#707585;}</style></defs><g transform="translate(-403 -64)"><rect class="a" width="34" height="34" transform="translate(403 64)"/><path class="b" d="M34,16c0-5.937-3.6-16-9.031-16-3.812,0-6.427,4.943-7.656,8.6a4.942,4.942,0,0,0-1.393-.483,4.981,4.981,0,0,0-9.793,0,5.026,5.026,0,0,0-4.135,4.9A4.969,4.969,0,0,0,2.321,14.8,4.969,4.969,0,0,0,4.98,23.973a5.146,5.146,0,0,0,3.05-1.018,4.974,4.974,0,0,0,2,.915v4.154H9.01A5.065,5.065,0,0,0,4.98,26.031,4.986,4.986,0,0,0,0,31.012V33a1,1,0,0,0,1,1H33a1,1,0,0,0,1-1,4.986,4.986,0,0,0-4.98-4.98H25.965V23.956C31.177,23.764,34,21.56,34,16ZM24.969,1.992c3.534,0,7.039,8.2,7.039,14.012,0,4.341-1.852,5.791-6.043,5.958V17.62L29.459,15.9a1,1,0,1,0-.879-1.788L25.965,15.4V9.031a1,1,0,0,0-1.992,0v2.123l-1.44-.96a1,1,0,0,0-1.105,1.658l2.545,1.7v8.412a11.085,11.085,0,0,1-2.712-.392,4.956,4.956,0,0,0-1.6-6.77,4.98,4.98,0,0,0-.7-4.808c.831-2.767,3.122-8,6.007-8Zm-4.88,30.016H15.9a5,5,0,0,0-3.884-3.884V23.87a4.975,4.975,0,0,0,1.992-.911,4.938,4.938,0,0,0,5.753.174,11.514,11.514,0,0,0,4.208.823v4.168A5,5,0,0,0,20.088,32.008ZM8.785,20.947a1,1,0,0,0-1.5,0,3.1,3.1,0,0,1-2.3,1.034A2.978,2.978,0,0,1,4,16.186a1,1,0,0,0,.5-1.5,2.972,2.972,0,0,1-.511-1.672,3.062,3.062,0,0,1,3.055-2.988,1,1,0,0,0,1-1,2.988,2.988,0,0,1,5.977,0,1,1,0,0,0,1,1,2.988,2.988,0,0,1,2.477,4.66,1,1,0,0,0,.5,1.5A2.978,2.978,0,0,1,17,21.98a2.943,2.943,0,0,1-2.238-1.034,1,1,0,0,0-1.5,0,2.94,2.94,0,0,1-4.477,0Zm-3.8,7.077a3.093,3.093,0,0,1,2.637,1.5,1,1,0,0,0,.861.5h2.545a2.993,2.993,0,0,1,2.817,1.992H1.992v-1A2.992,2.992,0,0,1,4.98,28.023Zm26.856,3.984H22.152a2.993,2.993,0,0,1,2.817-1.992H29.02a2.993,2.993,0,0,1,2.817,1.992Z" transform="translate(403 64)"/></g></svg>