<svg xmlns="http://www.w3.org/2000/svg" xmlns:xlink="http://www.w3.org/1999/xlink" width="24" height="24" viewBox="0 0 24 24"><defs><style>.a{fill:#a0a3ae;}.b{clip-path:url(#a);}</style><clipPath id="a"><rect class="a" width="24" height="24" transform="translate(1611 319)"/></clipPath></defs><g class="b" transform="translate(-1611 -319)"><g transform="translate(1611 319)"><path class="a" d="M22.585,9.075l-10-8.853a.882.882,0,0,0-1.17,0l-10,8.853a.882.882,0,0,0-.3.661V23.118A.882.882,0,0,0,2,24H22a.882.882,0,0,0,.882-.882V9.735A.882.882,0,0,0,22.585,9.075ZM21.118,22.235H2.882v-12.1L12,2.061l9.118,8.072Z"/><path class="a" d="M14.971,14.441H9.029a.882.882,0,0,0-.882.882v7.794H9.912V16.206h4.176v6.912h1.765V15.324A.882.882,0,0,0,14.971,14.441Z"/></g></g></svg>