<svg xmlns="http://www.w3.org/2000/svg" width="19" height="19" viewBox="0 0 19 19"><defs><style>.a{fill:#a0a3ae;}</style></defs><g transform="translate(0.001)"><path class="a" d="M13.856,0H5.142A5.149,5.149,0,0,0,0,5.143v8.714A5.149,5.149,0,0,0,5.142,19h8.714A5.149,5.149,0,0,0,19,13.857V5.143A5.149,5.149,0,0,0,13.856,0ZM9.5,14.7a5.2,5.2,0,1,1,5.2-5.2A5.2,5.2,0,0,1,9.5,14.7ZM14.818,5.53a1.535,1.535,0,1,1,1.535-1.535A1.537,1.537,0,0,1,14.818,5.53Zm0,0"/><path class="a" d="M150.1,146.02a4.081,4.081,0,1,0,4.081,4.081A4.086,4.086,0,0,0,150.1,146.02Zm0,0" transform="translate(-140.602 -140.601)"/><path class="a" d="M388.414,96.3a.421.421,0,1,0,.421.421A.422.422,0,0,0,388.414,96.3Zm0,0" transform="translate(-373.595 -92.727)"/></g></svg>