<svg xmlns="http://www.w3.org/2000/svg" width="11" height="11" viewBox="0 0 19.679 19"><defs><style>.a{fill:#111934;}</style></defs><path class="a" d="M17.711,0H1.968A1.941,1.941,0,0,0,0,1.9V17.1A1.941,1.941,0,0,0,1.968,19H17.711a1.941,1.941,0,0,0,1.968-1.9V1.9A1.941,1.941,0,0,0,17.711,0ZM5.9,16.15H2.952V7.6H5.9ZM4.428,5.985a1.734,1.734,0,0,1-1.771-1.71,1.734,1.734,0,0,1,1.771-1.71A1.734,1.734,0,0,1,6.2,4.275,1.734,1.734,0,0,1,4.428,5.985Zm12.3,10.165H13.775V11.115a1.477,1.477,0,0,0-2.952,0V16.15H7.871V7.6h2.952V8.74a3.206,3.206,0,0,1,2.46-1.33,3.428,3.428,0,0,1,3.444,3.325Z"/></svg>