<svg xmlns="http://www.w3.org/2000/svg" xmlns:xlink="http://www.w3.org/1999/xlink" width="24" height="24" viewBox="0 0 24 24"><defs><style>.a,.c{fill:#a0a3ae;}.a{stroke:#707070;opacity:0;}.b{clip-path:url(#a);}</style><clipPath id="a"><rect class="a" width="24" height="24" transform="translate(459.999 88)"/></clipPath></defs><g class="b" transform="translate(-459.999 -88)"><g transform="translate(459.999 88)"><path class="c" d="M11.891,3.343a7.891,7.891,0,0,0-7.882,7.882V19.6H5.64V11.225a6.251,6.251,0,1,1,12.5,0V19.6h1.631V11.225A7.891,7.891,0,0,0,11.891,3.343Z"/><path class="c" d="M20.7,18.781H3.3a.815.815,0,1,0,0,1.631H20.7a.815.815,0,1,0,0-1.631Z"/><path class="c" d="M11.891,0a2.5,2.5,0,1,0,2.5,2.5A2.5,2.5,0,0,0,11.891,0Zm0,3.37a.87.87,0,1,1,.87-.87A.881.881,0,0,1,11.891,3.37Z"/><path class="c" d="M13.3,19.6V21.01a1.359,1.359,0,0,1-2.718,0V19.6H8.956V21.01a2.99,2.99,0,0,0,5.98,0V19.6H13.3Z"/></g></g></svg>