<svg xmlns="http://www.w3.org/2000/svg" width="34" height="34" viewBox="0 0 34 34"><defs><style>.a,.b{fill:#707585;}.a{opacity:0;}</style></defs><g transform="translate(-403 -64)"><rect class="a" width="34" height="34" transform="translate(403 64)"/><path class="b" d="M31.019,10.056a2.98,2.98,0,0,0-2.474,1.32h-9.07A3,3,0,0,0,18,10.227V8.086h6.556a3.052,3.052,0,1,0,0-6.1H18V1A1,1,0,0,0,16,1v.984H9.44a3.052,3.052,0,1,0,0,6.1H16v2.142a3,3,0,0,0-1.478,1.149H5.455A2.98,2.98,0,0,0,0,13.037V24.91a2.98,2.98,0,0,0,5.455,1.661h9.07a2.979,2.979,0,0,0,4.949,0h9.07A2.98,2.98,0,0,0,34,24.91V13.037a2.984,2.984,0,0,0-2.981-2.981ZM8.372,5.033A1.065,1.065,0,0,1,9.44,3.973H24.552a1.06,1.06,0,1,1,0,2.12H9.44a1.065,1.065,0,0,1-1.068-1.06Zm11.608,8.335h8.057v11.21H19.981ZM2.981,25.9a.99.99,0,0,1-.989-.989V13.037a.989.989,0,1,1,1.977,0V24.91A.99.99,0,0,1,2.981,25.9ZM5.961,13.368h8.057v11.21H5.961ZM17,25.9a.99.99,0,0,1-.989-.989V13.037a.989.989,0,1,1,1.978,0V24.91A.99.99,0,0,1,17,25.9Zm15.008-.989a.989.989,0,1,1-1.977,0V13.037a.989.989,0,1,1,1.977,0Zm0,0" transform="translate(403 66.914)"/></g></svg>