<svg xmlns="http://www.w3.org/2000/svg" width="24" height="24" viewBox="0 0 24 24"><defs><style>.a,.b{fill:#a0a3ae;}.a{opacity:0;}</style></defs><g transform="translate(-61)"><rect class="a" width="24" height="24" transform="translate(61)"/><g transform="translate(67.001 9)"><path class="b" d="M133.8,192.228a.752.752,0,0,0-1.062,0l-2.469,2.471-.969-.971a.75.75,0,0,0-1.061,1.061l1.5,1.5a.743.743,0,0,0,.53.22.753.753,0,0,0,.531-.219l3-3A.751.751,0,0,0,133.8,192.228Z" transform="translate(-128.024 -192.008)"/></g><g transform="translate(67.001 15)"><path class="b" d="M133.8,320.228a.752.752,0,0,0-1.062,0l-2.469,2.47-.969-.969a.75.75,0,1,0-1.061,1.061l1.5,1.5a.751.751,0,0,0,1.061,0l3-3A.751.751,0,0,0,133.8,320.228Z" transform="translate(-128.024 -320.008)"/></g><g transform="translate(74.5 10.5)"><path class="b" d="M291.75,224h-3a.75.75,0,0,0,0,1.5h3a.75.75,0,0,0,0-1.5Z" transform="translate(-288 -224)"/></g><g transform="translate(74.5 16.5)"><path class="b" d="M291.75,352h-3a.75.75,0,0,0,0,1.5h3a.75.75,0,0,0,0-1.5Z" transform="translate(-288 -352)"/></g><g transform="translate(64)"><path class="b" d="M80.5,3h-3V2.25a.75.75,0,0,0-.75-.75H75.122a2.252,2.252,0,0,0-4.245,0H69.25a.75.75,0,0,0-.75.75V3h-3A1.5,1.5,0,0,0,64,4.5v18A1.5,1.5,0,0,0,65.5,24h15A1.5,1.5,0,0,0,82,22.5V4.5A1.5,1.5,0,0,0,80.5,3ZM70,3h1.5a.75.75,0,0,0,.75-.75.75.75,0,0,1,1.5,0A.75.75,0,0,0,74.5,3H76V4.5H70ZM80.5,22.5h-15V4.5h3v.75a.75.75,0,0,0,.75.75h7.5a.75.75,0,0,0,.75-.75V4.5h3Z" transform="translate(-64)"/></g></g></svg>