<svg xmlns="http://www.w3.org/2000/svg" width="24.001" height="24" viewBox="0 0 24.001 24"><defs><style>.a,.b{fill:#a0a3ae;}.a{opacity:0;}</style></defs><rect class="a" width="24" height="24" transform="translate(0.001)"/><g transform="translate(0)"><path class="b" d="M16.876,3.518a9.741,9.741,0,0,0-2.239-.931v-.8A1.792,1.792,0,0,0,12.849,0H11.256A1.792,1.792,0,0,0,9.468,1.788v.8a9.53,9.53,0,0,0-2.239.931L6.66,2.955a1.786,1.786,0,0,0-2.528,0L3,4.082A1.786,1.786,0,0,0,3,6.61l.563.563a9.741,9.741,0,0,0-.931,2.239h-.8A1.792,1.792,0,0,0,.05,11.2v1.592a1.792,1.792,0,0,0,1.788,1.788h.8a9.53,9.53,0,0,0,.931,2.239L3,17.39a1.792,1.792,0,0,0,0,2.528l1.127,1.127a1.786,1.786,0,0,0,2.528,0l.563-.563a9.741,9.741,0,0,0,2.239.931v.8A1.792,1.792,0,0,0,11.251,24h1.592a1.792,1.792,0,0,0,1.788-1.788v-.8a9.53,9.53,0,0,0,2.239-.931l.563.563a1.786,1.786,0,0,0,2.528,0l1.127-1.127a1.792,1.792,0,0,0,0-2.528l-.563-.563a9.741,9.741,0,0,0,.931-2.239h.8A1.792,1.792,0,0,0,24.045,12.8V11.206a1.792,1.792,0,0,0-1.788-1.788h-.8a9.53,9.53,0,0,0-.931-2.239l.563-.563a1.792,1.792,0,0,0,0-2.528L19.963,2.96a1.786,1.786,0,0,0-2.528,0Zm1.754.622a.1.1,0,0,1,.152,0L19.91,5.267a.1.1,0,0,1,0,.152L18.876,6.453a.839.839,0,0,0-.1,1.063,7.945,7.945,0,0,1,1.2,2.9.84.84,0,0,0,.823.676h1.465a.109.109,0,0,1,.108.108v1.592a.109.109,0,0,1-.108.108H20.8a.84.84,0,0,0-.823.676,7.994,7.994,0,0,1-1.2,2.9.839.839,0,0,0,.1,1.063l1.034,1.034a.1.1,0,0,1,0,.152l-1.127,1.127a.108.108,0,0,1-.152,0L17.6,18.821a.839.839,0,0,0-1.063-.1,7.98,7.98,0,0,1-2.9,1.2.84.84,0,0,0-.676.823v1.465a.109.109,0,0,1-.108.108H11.256a.109.109,0,0,1-.108-.108V20.742a.84.84,0,0,0-.676-.823,8.03,8.03,0,0,1-2.9-1.2.851.851,0,0,0-.465-.142.839.839,0,0,0-.593.245L5.479,19.855a.1.1,0,0,1-.152,0L4.2,18.728a.1.1,0,0,1,0-.152l1.034-1.034a.839.839,0,0,0,.1-1.063,7.98,7.98,0,0,1-1.2-2.9.84.84,0,0,0-.823-.676H1.838a.109.109,0,0,1-.108-.108V11.2a.109.109,0,0,1,.108-.108H3.3a.84.84,0,0,0,.823-.676,8.03,8.03,0,0,1,1.2-2.9.845.845,0,0,0-.1-1.063L4.19,5.419a.1.1,0,0,1-.029-.078.1.1,0,0,1,.029-.073L5.317,4.14a.1.1,0,0,1,.152,0L6.5,5.174a.839.839,0,0,0,1.063.1,7.98,7.98,0,0,1,2.9-1.2.84.84,0,0,0,.676-.823V1.788a.109.109,0,0,1,.108-.108h1.592a.109.109,0,0,1,.108.108V3.254a.84.84,0,0,0,.676.823,8.03,8.03,0,0,1,2.9,1.2.845.845,0,0,0,1.063-.1Z" transform="translate(-0.05 0)"/><path class="b" d="M150.23,145.3a4.88,4.88,0,1,0,4.88,4.88A4.887,4.887,0,0,0,150.23,145.3Zm0,8.08a3.2,3.2,0,1,1,3.2-3.2A3.2,3.2,0,0,1,150.23,153.38Z" transform="translate(-138.23 -138.18)"/></g></svg>