<svg xmlns="http://www.w3.org/2000/svg" width="12" height="18" viewBox="0 0 12 18"><defs><style>.a{fill:#111934;}</style></defs><g transform="translate(-85.334 -0.002)"><g transform="translate(85.334 0.001)"><g transform="translate(0 0)"><path class="a" d="M220.615,3.221l-3-3h0q-.026-.026-.055-.049l-.027-.02L217.5.128l-.033-.02-.03-.018L217.4.074l-.032-.015-.034-.012L217.3.034l-.034-.009-.037-.009-.04-.006-.033,0a.755.755,0,0,0-.148,0l-.033,0-.04.006L216.9.025l-.034.009-.036.012L216.8.059l-.032.015-.034.016-.03.018-.033.02-.032.024-.027.02c-.019.016-.037.032-.055.049h0l-3,3a.75.75,0,1,0,1.061,1.061l1.72-1.72v8.689a.75.75,0,1,0,1.5,0V2.562l1.72,1.72a.75.75,0,1,0,1.061-1.061Z" transform="translate(-208.835 -0.001)"/><path class="a" d="M91.553,178.387l-1.72,1.72v-8.689a.75.75,0,1,0-1.5,0v8.689l-1.72-1.72a.75.75,0,1,0-1.061,1.061l3,3h0c.017.017.036.034.055.049l.027.02.032.024.033.02.03.018.034.016.032.015.034.012.036.012.034.009.037.009.04.006.033,0a.755.755,0,0,0,.148,0l.033,0,.04-.006.037-.009.034-.009.036-.012.034-.012.032-.015.034-.016.03-.018.033-.02.032-.024.027-.02q.028-.023.054-.049h0l3-3a.75.75,0,1,0-1.061-1.061Z" transform="translate(-85.334 -164.667)"/></g></g></g></svg>