<svg xmlns="http://www.w3.org/2000/svg" width="24" height="24" viewBox="0 0 24 24"><defs><style>.a,.b{fill:#a0a3ae;}.a{opacity:0;}</style></defs><rect class="a" width="24" height="24"/><g transform="translate(0)"><path class="b" d="M.932,21.4A1.274,1.274,0,0,0,1.3,23.8a6.25,6.25,0,0,0,.975.074,7.581,7.581,0,0,0,4.151-1.26A12,12,0,0,0,20.5,3.519a12,12,0,0,0-17.839,16A4.113,4.113,0,0,1,.932,21.4ZM4.721,4.7a10.32,10.32,0,1,1,14.6,14.6A10.328,10.328,0,0,1,6.794,20.9a.836.836,0,0,0-.941.059,5.875,5.875,0,0,1-3.1,1.215,7.026,7.026,0,0,0,1.676-2.45.829.829,0,0,0-.142-.892A10.331,10.331,0,0,1,4.721,4.7Z" transform="translate(-0.018 0)"/><path class="b" d="M127.126,229.281h9.939a.841.841,0,1,0,0-1.681h-9.939a.841.841,0,1,0,0,1.681Z" transform="translate(-120.095 -216.445)"/><path class="b" d="M127.126,159.786h9.939a.843.843,0,1,0,0-1.686h-9.939a.843.843,0,0,0,0,1.686Z" transform="translate(-120.095 -150.352)"/><path class="b" d="M127.126,298.781h9.939a.841.841,0,1,0,0-1.681h-9.939a.841.841,0,1,0,0,1.681Z" transform="translate(-120.095 -282.539)"/></g></svg>