<svg xmlns="http://www.w3.org/2000/svg" width="23.385" height="19" viewBox="0 0 23.385 19"><defs><style>.a{fill:#111934;}</style></defs><g transform="translate(0 -48)"><g transform="translate(0 48)"><path class="a" d="M23.385,50.249a10,10,0,0,1-2.762.757,4.767,4.767,0,0,0,2.109-2.65,9.58,9.58,0,0,1-3.04,1.16A4.794,4.794,0,0,0,11.4,52.8a4.936,4.936,0,0,0,.111,1.093,13.57,13.57,0,0,1-9.881-5.015A4.8,4.8,0,0,0,3.1,55.281a4.734,4.734,0,0,1-2.166-.59v.053a4.816,4.816,0,0,0,3.841,4.711,4.784,4.784,0,0,1-1.257.158,4.239,4.239,0,0,1-.908-.082,4.84,4.84,0,0,0,4.48,3.34,9.633,9.633,0,0,1-5.944,2.045A8.979,8.979,0,0,1,0,64.849,13.5,13.5,0,0,0,7.354,67,13.551,13.551,0,0,0,21,53.358c0-.212-.007-.417-.018-.62A9.564,9.564,0,0,0,23.385,50.249Z" transform="translate(0 -48)"/></g></g></svg>