<svg xmlns="http://www.w3.org/2000/svg" width="34" height="34" viewBox="0 0 34 34"><defs><style>.a,.b{fill:#707585;}.a{opacity:0;}</style></defs><rect class="a" width="34" height="34"/><path class="b" d="M73.016,60A13.016,13.016,0,1,0,86.031,73.016,13.03,13.03,0,0,0,73.016,60Zm0,24.039A11.023,11.023,0,1,1,84.039,73.016,11.036,11.036,0,0,1,73.016,84.039Zm0,0" transform="translate(-56.016 -56.016)"/><path class="b" d="M423.992,61a1,1,0,1,1-1-1A1,1,0,0,1,423.992,61Zm0,0" transform="translate(-393.977 -56.016)"/><path class="b" d="M61.992,61a1,1,0,1,1-1-1A1,1,0,0,1,61.992,61Zm0,0" transform="translate(-56.016 -56.016)"/><path class="b" d="M423.992,423a1,1,0,1,1-1-1A1,1,0,0,1,423.992,423Zm0,0" transform="translate(-393.977 -393.977)"/><path class="b" d="M31.012,0H2.988A2.992,2.992,0,0,0,0,2.988V31.012A2.992,2.992,0,0,0,2.988,34H31.012A2.992,2.992,0,0,0,34,31.012V2.988A2.992,2.992,0,0,0,31.012,0Zm1,31.012a1,1,0,0,1-1,1H2.988a1,1,0,0,1-1-1V2.988a1,1,0,0,1,1-1H31.012a1,1,0,0,1,1,1Zm0,0"/><path class="b" d="M61.992,423a1,1,0,1,1-1-1A1,1,0,0,1,61.992,423Zm0,0" transform="translate(-56.016 -393.977)"/><path class="b" d="M141.514,125.347l-2.192-.132a2.99,2.99,0,0,0-.324-.56l.982-1.962a3.792,3.792,0,0,0-3.391-5.49h0a3.792,3.792,0,0,0-3.389,5.488l.982,1.965a2.993,2.993,0,0,0-.324.559l-2.192.132a3.792,3.792,0,0,0,.113,7.576l.118,0a3.767,3.767,0,0,0,3.163-1.7l1.207-1.83a2.913,2.913,0,0,0,.65,0l1.208,1.83a3.766,3.766,0,0,0,3.162,1.7l.118,0a3.792,3.792,0,0,0,.113-7.576Zm-3.936.962h0a.968.968,0,0,1,.006.11,1,1,0,0,1-1.992,0,.968.968,0,0,1,.006-.11h0a1,1,0,0,1,1.979,0Zm-2.521-6.259a1.766,1.766,0,0,1,1.53-.854h0a1.8,1.8,0,0,1,1.61,2.606l-.863,1.725a3,3,0,0,0-1.494,0l-.863-1.726A1.766,1.766,0,0,1,135.057,120.05Zm-3.22,10.882a1.8,1.8,0,0,1-.054-3.6l1.927-.116a2.986,2.986,0,0,0,.747,1.292l-1.063,1.612A1.764,1.764,0,0,1,131.836,130.932Zm11.01-.9a1.8,1.8,0,0,1-3.063.092l-1.063-1.612a2.986,2.986,0,0,0,.747-1.292l1.927.116a1.8,1.8,0,0,1,1.452,2.7Zm0,0" transform="translate(-119.589 -109.42)"/></svg>