<svg xmlns="http://www.w3.org/2000/svg" width="102.91" height="32" viewBox="0 0 102.91 32"><defs><style>.a{fill:#fff;}.a,.b{fill-rule:evenodd;}.b{fill:#f79510;}</style></defs><g transform="translate(-402.633 -294.633)"><path class="a" d="M433.123,326.171l5.187-31H446.6l-5.187,31Zm38.368-30.235a21.158,21.158,0,0,0-7.429-1.3c-8.2,0-13.967,4.209-14.014,10.231-.054,4.457,4.117,6.94,7.259,8.422,3.232,1.517,4.317,2.489,4.3,3.846-.024,2.078-2.579,3.029-4.964,3.029a17.154,17.154,0,0,1-7.811-1.625l-1.064-.495-1.16,6.937a25.876,25.876,0,0,0,9.236,1.655c8.714,0,14.372-4.156,14.441-10.589.03-3.533-2.179-6.213-6.964-8.422-2.9-1.437-4.677-2.391-4.657-3.846,0-1.288,1.5-2.668,4.749-2.668a15.039,15.039,0,0,1,6.207,1.192l.742.355Zm21.271-.73h-6.41c-1.985,0-3.473.548-4.344,2.57l-12.315,28.408H478.4s1.422-3.822,1.744-4.66c.951,0,9.412.015,10.619.015.25,1.082,1.011,4.645,1.011,4.645h7.695ZM482.53,315.182c.689-1.783,3.3-8.663,3.3-8.663-.048.081.686-1.8,1.1-2.957l.56,2.671s1.589,7.4,1.917,8.95ZM426.168,295.2l-8.115,21.134-.871-4.3c-1.511-4.949-6.219-10.315-11.483-13l7.423,27.108,8.777,0L434.956,295.2Z" transform="translate(6.074 0)"/><path class="b" d="M416.46,294.633H402.746l-.113.671c10.673,2.68,17.732,9.152,20.663,16.93l-2.981-14.87c-.513-2.051-2.006-2.659-3.855-2.731" transform="translate(0 0)"/></g></svg>